<?xml version="1.0" encoding="utf-8"?>
<!-- Generator: Adobe Illustrator 23.0.1, SVG Export Plug-In . SVG Version: 6.00 Build 0)  -->
<svg version="1.1" id="Layer_1" xmlns="http://www.w3.org/2000/svg" xmlns:xlink="http://www.w3.org/1999/xlink" x="0px" y="0px"
	 viewBox="0 0 458 566" style="enable-background:new 0 0 458 566;" xml:space="preserve">
<style type="text/css">
	.st0{fill:#AEB4BA;}
	.st1{fill:#FFFFFF;}
</style>
<title>San Diego Padres cap logo on light</title>
<g>
	<path class="st0" d="M299.7,113.8H102.6c-1.4,0-1.4,2.8,0,2.8S129,119,129,142.1V209H77.6c-11.3,0-13.7-9.4-13.7-15.1
		c0-0.5-0.5-57,0-92.4c0.5-28.8,16-43.4,42.9-43.4l126.8-1.4c7.5,0,14.1,3.3,14.1,12.7s-9.9,11.8-11.8,12.7c-0.9,0.5-0.9,1.4,0,1.4
		h74l-0.9-24c-0.5-17.4-11.3-59.4-66.5-59.4H94c-53.7,0-91.5,38.7-91.5,90V91c0,30.6-0.9,74-0.9,101.8c0,33.9,29.2,69.3,70.7,69.3
		H237c11.3,0,14.6,10.4,14.6,14.1c0,1.4,0.5,52.3,0.5,89.6l-0.5,0.5c0,23.6-15.6,42-40.1,42H187l0.5-123l-58.5-0.5v124
		c-29.7,0-50,0.5-52.3,0.5c-12.3,0-14.6-10.4-14.6-15.1c0-2.8,0-41.5,0.5-55.6c0-16,23.1-20.7,23.1-20.7V316H1.3
		c0,0,0,57.5-0.5,85.8c0,30.2,25.5,64.6,61.8,64.6h65.5v59.9c0,23.1-15.1,34.4-27.8,38.2c-0.5,0-0.5,1.4,0,1.4h198.5
		c81.6,0,127.3-40.1,127.3-120.2V233.5C426.1,151.9,380.3,113.8,299.7,113.8L299.7,113.8z M369.5,227.8C369,286.7,370,403.2,370,455
		c0,37.2-29.7,57-66.9,57h-115l0.5-46.7h29.7c54.2,0,89.6-39.1,89.6-90.5c2.8-55.6,1.4-96.2,1.4-102.3c0-22.2-17.9-64.6-70.7-64.6
		h-49v-45.3h116C344.5,163.3,369.5,191.1,369.5,227.8L369.5,227.8z"/>
	<path class="st1" d="M422.8,561.6v-17h6.1v-3.7h-16.5v3.7h6.1v17H422.8z M457.2,561.6v-20.7h-7.1l-5.2,13.6l-4.7-13.6h-7.5v20.7
		h4.2v-16.5l6.1,16.5h3.8l6.1-16.5v16.5H457.2L457.2,561.6z"/>
</g>
</svg>
