<?xml version="1.0" encoding="utf-8"?>
<!-- Generator: Adobe Illustrator 23.0.1, SVG Export Plug-In . SVG Version: 6.00 Build 0)  -->
<svg version="1.1" id="Layer_1" xmlns="http://www.w3.org/2000/svg" xmlns:xlink="http://www.w3.org/1999/xlink" x="0px" y="0px"
	 viewBox="0 0 250 250" style="enable-background:new 0 0 250 250;" xml:space="preserve">
<style type="text/css">
	.st0{fill-rule:evenodd;clip-rule:evenodd;fill:#002B5C;}
	.st1{fill:#FFFFFF;}
	.st2{fill:#003263;}
	.st3{fill:#FFFFFF;stroke:#FFFFFF;stroke-miterlimit:10;}
	.st4{fill:#CE1141;}
</style>
<g>
	<rect class="st0" width="250" height="250"/>
	<path class="st1" d="M162.7,215.1H160v7.5h-1.9v-7.5h-2.8v-1.6h7.4V215.1 M175.1,222.6h-1.9v-7.3l0,0l-2.7,7.3h-1.8l-2.6-7.3l0,0
		v7.3h-1.9v-9.1h3.2l2.1,6h0.1l2.2-6h3.2L175.1,222.6L175.1,222.6z"/>
	<path class="st1" d="M146.2,206v11.1l14.8,23.5h-55.6l14.8-23.5v-12.2C129.2,205.7,141,206.4,146.2,206"/>
	<path class="st2" d="M118.6,204.9c0,0,0,10.9,0,11.7c-0.5,0.8-16.1,25.6-16.1,25.6h61.4c0,0-15.6-24.8-16.1-25.6
		c0-0.9,0-12.4,0-12.4l-1.7,0.1c-5,0.4-16.5-0.3-25.8-1.1l-1.7-0.2L118.6,204.9 M121.6,217.9l0.2-0.4c0,0,0-8.4,0-10.9
		c7.8,0.7,17.3,1.2,22.9,1c0,2.4,0,9.9,0,9.9s11,17.5,13.5,21.4c-4.9,0-44.9,0-49.8,0C110.8,235.1,121.6,217.9,121.6,217.9z"/>
	<path class="st1" d="M146.2,128.9V31.3c7.6,0.6,44.3,2.4,58.1,6c7.2,17.6,22,27.7,32.7,27.9c0.1,0-7.2-25.9-5.2-45.2
		c-24.1-5.6-71.4-10.6-98.6-10.6c-27.2,0-74.5,5-98.6,10.6c2,19.2-5.4,45.2-5.2,45.2C40.1,65,54.8,54.9,62.1,37.3
		c13.8-3.6,50.5-5.4,58.1-6v98v46.3c7.8,2,24.5,1.3,26.1,1.1L146.2,128.9"/>
	<path class="st3" d="M133.2,7.8c-28,0-75.2,5.1-99,10.6l-1.4,0.3l0.2,1.4c0.8,7.5,0.6,21.1-4.9,43.4c-0.4,1.6-0.5,2,0,2.6l0.5,0.6
		h0.8c10.7-0.2,26-10.1,33.7-28c11.7-2.9,38.2-4.6,51.1-5.4c0,0,2.6-0.2,4.4-0.3c0,3.3,0,143.8,0,143.8l1.2,0.3
		c8,2.1,24.9,1.4,26.7,1.1l1.4-0.2c0,0,0-141.8,0-145.1c1.8,0.1,4.4,0.3,4.4,0.3c12.9,0.8,39.5,2.5,51.1,5.4
		c7.7,17.9,23,27.9,33.7,28h0.8l0.5-0.6c0.5-0.6,0.4-1,0-2.6c-5.5-22.2-5.7-35.9-4.9-43.4l0.1-1.4l-1.4-0.3
		C208.4,12.9,161.3,7.8,133.2,7.8 M133.2,11c27.4,0,73,4.9,97,10.3c-0.1,1.7-0.3,3.5-0.3,5.8c0,8.1,1.2,19.8,5,35.9
		c-9.7-1.3-22.5-10.3-29.1-26.4l-0.3-0.7l-0.8-0.2c-11.7-3-39.1-4.8-52.4-5.7l-7.8-0.5v1.7c0,0,0,141,0,143.9
		c-3.8,0.2-15.9,0.5-22.9-1c0-2.6,0-144.6,0-144.6l-7.8,0.5c-13.2,0.8-40.7,2.6-52.4,5.7l-0.8,0.2l-0.3,0.7
		C54,52.8,41.2,61.8,31.5,63.1c3.9-16.2,5-27.9,5-36c0-2.3-0.1-4.1-0.3-5.8C60.2,15.9,105.8,11,133.2,11z"/>
	<path class="st4" d="M118.2,53.4c-36.7,4.6-58.9,24.8-74,45c-4,5.4-27.2,27.1-34.9,32c13.2,8.4,32.6,26.2,45.7,41.8
		c14.4,17.2,35.9,32.7,79,34.9c50.6,2.6,97.4-23.7,106.2-62.5l-34.9-0.4c-5.6,17.6-41.7,33.1-71.4,31.7c-44.3-2.1-71.1-23.9-71-45.6
		c0.1-21.5,21.2-41,55.2-46.6"/>
	<path class="st4" d="M148.2,81.7c53.9,2.4,61.3,35,62.4,39.1l30.1-0.4c-1.1-28-31.1-64.2-92.5-68.1"/>
</g>
</svg>
